<svg id="Capa_1" data-name="Capa 1" xmlns="http://www.w3.org/2000/svg" viewBox="0 0 656.2 655.42"><defs><style>.cls-1{fill:#fff;}.cls-2{fill:none;stroke:#000;stroke-miterlimit:10;stroke-width:3px;}</style></defs><title>icon whitesvg</title><path class="cls-1" d="M472.89,181.87V465.55H183.31V181.87ZM426.06,394.54,382.85,319.7l-43.21,74.84h22.65l20.56-35.61,20.56,35.61Zm-54.75-94.82L360,280.11H318.86l20.57-35.61L328.1,224.88l-43.21,74.84Zm-54.74,94.82L273.36,319.7,262,339.32l20.56,35.61H241.47l-11.32,19.61Z"/><path d="M495.49,465.55v22.61H160.71V159.27H495.49V465.55Zm-22.6,0V181.87H183.31V465.55Z"/><path d="M382.85,319.7l43.21,74.84H403.41l-20.56-35.61-20.56,35.61H339.64Zm36.68,71.07-36.68-63.53-36.69,63.53h13.95l22.74-39.38,22.73,39.38Z"/><path d="M382.85,327.24l36.68,63.53H405.58l-22.73-39.38-22.74,39.38H346.16ZM413,387l-30.15-52.23L352.69,387h5.25l24.91-43.15L407.76,387Z"/><polygon points="382.85 334.78 413 387.01 407.76 387.01 382.85 343.86 357.94 387.01 352.69 387.01 382.85 334.78"/><path d="M360,280.11l11.32,19.61H284.89l43.21-74.84,11.33,19.62-20.57,35.61ZM364.78,296l-7-12.07H312.34l22.74-39.38-7-12.08L291.42,296Z"/><path d="M357.81,283.88l7,12.07H291.42l36.68-63.53,7,12.08-22.74,39.38Zm.45,8.3-2.62-4.54H305.81l24.92-43.14L328.1,240,298,292.18Z"/><polygon points="355.64 287.64 358.26 292.18 297.95 292.18 328.1 239.95 330.73 244.5 305.81 287.64 355.64 287.64"/><path d="M273.36,319.7l43.21,74.84H230.15l11.32-19.61H282.6L262,339.32ZM310,390.77l-36.68-63.53-7,12.08,22.74,39.38H243.65l-7,12.07Z"/><path d="M273.36,327.24,310,390.77H236.67l7-12.07h45.47l-22.74-39.38ZM303.51,387l-30.15-52.23-2.63,4.54,24.91,43.15H245.82L243.2,387Z"/><polygon points="273.36 334.78 303.51 387.01 243.2 387.01 245.82 382.47 295.64 382.47 270.73 339.32 273.36 334.78"/><rect class="cls-2" x="183.31" y="181.87" width="289.58" height="283.68"/><polygon class="cls-2" points="495.49 159.27 472.89 159.27 183.31 159.27 160.71 159.27 160.71 181.87 160.71 465.55 160.71 488.16 183.31 488.16 472.89 488.16 495.49 488.16 495.49 465.55 495.49 181.87 495.49 159.27"/><polygon class="cls-2" points="371.31 299.72 284.89 299.72 328.1 224.88 339.43 244.5 318.86 280.11 359.99 280.11 371.31 299.72"/><polygon class="cls-2" points="297.95 292.18 358.26 292.18 355.64 287.64 305.81 287.64 330.73 244.5 328.1 239.95 297.95 292.18"/><polygon class="cls-2" points="316.57 394.54 230.15 394.54 241.47 374.93 282.6 374.93 262.04 339.32 273.36 319.7 316.57 394.54"/><polygon class="cls-2" points="243.2 387.01 303.51 387.01 273.36 334.78 270.73 339.32 295.64 382.47 245.82 382.47 243.2 387.01"/><polygon class="cls-2" points="426.06 394.54 403.41 394.54 382.85 358.93 362.29 394.54 339.64 394.54 382.85 319.7 426.06 394.54"/><polygon class="cls-2" points="407.76 387.01 413 387.01 382.85 334.78 352.69 387.01 357.94 387.01 382.85 343.86 407.76 387.01"/></svg>