<svg id="Capa_1" data-name="Capa 1" xmlns="http://www.w3.org/2000/svg" viewBox="0 0 656.2 655.42"><defs><style>.cls-1,.cls-3{stroke:#000;stroke-miterlimit:10;}.cls-1{stroke-width:3px;}.cls-2{fill:#fff;}.cls-3{fill:none;stroke-width:0.75px;}</style></defs><title>icon blacksvg</title><rect class="cls-1" x="-62.89" y="-91.02" width="798.38" height="831.19"/><path d="M472.88,181.87V465.55H183.31V181.87ZM426.05,394.54,382.84,319.7l-43.21,74.84h22.65l20.56-35.61,20.57,35.61Zm-54.74-94.82L360,280.11H318.86l20.56-35.61L328.1,224.88l-43.21,74.84Zm-54.74,94.82L273.35,319.7,262,339.32l20.56,35.61H241.47l-11.33,19.61Z"/><path class="cls-2" d="M495.49,465.55v22.61H160.7V159.27H495.49V465.55Zm-22.61,0V181.87H183.31V465.55Z"/><polygon class="cls-2" points="382.84 319.7 426.05 394.54 403.41 394.54 382.84 358.93 362.28 394.54 339.63 394.54 382.84 319.7"/><polygon class="cls-2" points="359.98 280.11 371.31 299.72 284.89 299.72 328.1 224.88 339.42 244.5 318.86 280.11 359.98 280.11"/><polygon class="cls-2" points="273.35 319.7 316.57 394.54 230.14 394.54 241.47 374.93 282.59 374.93 262.03 339.32 273.35 319.7"/><polygon class="cls-3" points="359.98 280.11 318.86 280.11 339.42 244.5 328.1 224.88 284.89 299.72 371.31 299.72 359.98 280.11"/><polygon class="cls-3" points="262.03 339.32 282.59 374.93 241.47 374.93 230.14 394.54 316.57 394.54 273.35 319.7 262.03 339.32"/><polygon class="cls-3" points="382.84 319.7 339.63 394.54 362.28 394.54 382.84 358.93 403.41 394.54 426.05 394.54 382.84 319.7"/></svg>