<svg id="Capa_1" data-name="Capa 1" xmlns="http://www.w3.org/2000/svg" viewBox="0 0 643.25 138.52"><defs><style>.cls-1{fill:#fff;fill-rule:evenodd;}</style></defs><title>Imagotype 3  blacksvg</title><rect width="144.25" height="138.52"/><polygon class="cls-1" points="88.41 52.41 63.48 52.41 75.95 30.82 72.13 24.2 52.02 59.03 92.23 59.03 88.41 52.41"/><polygon class="cls-1" points="43.03 74.59 55.49 96.18 30.57 96.18 26.74 102.8 66.96 102.8 46.85 67.97 43.03 74.59"/><polygon class="cls-1" points="97.4 67.97 77.29 102.8 84.93 102.8 97.4 81.21 109.86 102.8 117.51 102.8 97.4 67.97"/><path d="M249.3,46.76H221.49V67H246v5h-24.5V94.48H212V41.76h37.3Z"/><path d="M280.24,75.58v18.9H271V41.76h37.63q6.71,0,6.7,6.69V68.88q0,6.7-6.7,6.7H303.8l11.95,18.9h-9.66l-11.61-18.9Zm0-28.82V70.58h23.22a3.08,3.08,0,0,0,2.16-.51,3.32,3.32,0,0,0,.47-2.12V49.39a3.3,3.3,0,0,0-.47-2.16,3.3,3.3,0,0,0-2.16-.47Z"/><path d="M379.84,94.48l-3.9-10.42H348.56l-3.9,10.42H335.5l20.35-52.72h12.8l20.43,52.72ZM350.42,79.06H374L362.2,47.78Z"/><path d="M453.33,59.73H444V49.39a3.32,3.32,0,0,0-.46-2.16,3.3,3.3,0,0,0-2.16-.47H422.13a3.28,3.28,0,0,0-2.11.47,3.08,3.08,0,0,0-.51,2.16V86.86A3.08,3.08,0,0,0,420,89a3.3,3.3,0,0,0,2.11.46h19.25a3.32,3.32,0,0,0,2.16-.46,3.32,3.32,0,0,0,.46-2.16V76.51h9.33V87.79q0,6.69-6.7,6.69H416.79q-6.69,0-6.69-6.69V48.45q0-6.69,6.69-6.69h29.84q6.71,0,6.7,6.69Z"/><path d="M517,41.76v5H498.26V94.48h-9.33V46.76H470.2v-5Z"/><path d="M575.9,94.48,572,84.06H544.62l-3.9,10.42h-9.15l20.34-52.72h12.8l20.43,52.72ZM546.49,79.06h23.56L558.27,47.78Z"/><path d="M616.25,89.48H643v5H607V41.76h9.24Z"/></svg>