<svg id="Capa_1" data-name="Capa 1" xmlns="http://www.w3.org/2000/svg" viewBox="0 0 657.76 165.57"><defs><style>.cls-1{fill:#fff;}</style></defs><title>Imagotype 3 white linesvg</title><polygon class="cls-1" points="652.67 101.37 652.67 106.31 617.06 106.31 617.06 54.2 626.2 54.2 626.2 101.37 652.67 101.37"/><path class="cls-1" d="M575.25,54.2l20.2,52.11h-9.14L582.46,96H555.4l-3.86,10.3h-9L562.6,54.2Zm5.28,36.87L568.89,60.15,557.24,91.07Z"/><polygon class="cls-1" points="528.08 54.2 528.08 59.14 509.56 59.14 509.56 106.31 500.35 106.31 500.35 59.14 481.83 59.14 481.83 54.2 528.08 54.2"/><path class="cls-1" d="M465.16,88.55V99.7q0,6.61-6.62,6.61H429q-6.62,0-6.62-6.61V60.82q0-6.62,6.62-6.62h29.5q6.61,0,6.62,6.62V72h-9.22V61.74a3.27,3.27,0,0,0-.46-2.14,3.33,3.33,0,0,0-2.14-.46h-19a3.31,3.31,0,0,0-2.09.46,3,3,0,0,0-.51,2.14v37a3,3,0,0,0,.51,2.14,3.25,3.25,0,0,0,2.09.46h19a3.27,3.27,0,0,0,2.14-.46,3.27,3.27,0,0,0,.46-2.14V88.55Z"/><path class="cls-1" d="M381.45,54.2l20.2,52.11h-9.14L388.66,96H361.59l-3.85,10.3h-9.05L368.8,54.2Zm5.28,36.87L375.08,60.15,363.44,91.07Z"/><path class="cls-1" d="M317.35,87.63l11.82,18.68h-9.55L308.14,87.63H294.06v18.68h-9.13V54.2h37.2q6.62,0,6.62,6.62V81q0,6.61-6.62,6.62Zm2.27-7.54V61.74a3.33,3.33,0,0,0-.46-2.14,3.33,3.33,0,0,0-2.14-.46h-23V82.69h23a3,3,0,0,0,2.14-.51A3.31,3.31,0,0,0,319.62,80.09Z"/><polygon class="cls-1" points="263.48 54.2 263.48 59.14 236 59.14 236 79.17 260.21 79.17 260.21 84.11 236 84.11 236 106.31 226.61 106.31 226.61 54.2 263.48 54.2"/><path class="cls-1" d="M167.57,5V157.76H9.14V5Zm-8.42,144.34V13.42H17.56V149.34Z"/><path class="cls-1" d="M159.15,13.42V149.34H17.56V13.42ZM134.08,115,113.34,79.11,92.59,115h8.71l12-20.84,12,20.84Zm-25-43.27-4.36-7.54H80.68l12-20.84-4.35-7.55L67.61,71.77ZM84.12,115,63.37,79.11,59,86.65l12,20.84H47L42.63,115Z"/><polygon class="cls-1" points="113.34 79.11 134.08 115.04 125.37 115.04 113.34 94.2 101.3 115.04 92.59 115.04 113.34 79.11"/><polygon class="cls-1" points="104.74 64.23 109.1 71.77 67.61 71.77 88.36 35.84 92.71 43.39 80.68 64.23 104.74 64.23"/><polygon class="cls-1" points="63.37 79.11 84.12 115.04 42.63 115.04 46.99 107.49 71.05 107.49 59.02 86.65 63.37 79.11"/></svg>