<svg id="Capa_1" data-name="Capa 1" xmlns="http://www.w3.org/2000/svg" viewBox="0 0 657.76 165.57"><defs><style>.cls-1{fill:#fff;}</style></defs><title>Imagotype 3 black linesvg</title><path class="cls-1" d="M159.15,13.42V149.33H17.56V13.42ZM134.08,115,113.34,79.1,92.59,115h8.71l12-20.84,12,20.84Zm-25-43.27-4.36-7.54H80.68l12-20.84-4.35-7.55L67.61,71.76ZM84.12,115,63.37,79.1,59,86.65l12,20.84H47L42.63,115Z"/><polygon points="652.67 101.37 652.67 106.31 617.06 106.31 617.06 54.19 626.2 54.19 626.2 101.37 652.67 101.37"/><path d="M575.25,54.19l20.2,52.12h-9.14L582.46,96H555.4l-3.86,10.31h-9L562.6,54.19Zm5.28,36.87L568.89,60.14,557.24,91.06Z"/><polygon points="528.08 54.19 528.08 59.14 509.56 59.14 509.56 106.31 500.35 106.31 500.35 59.14 481.83 59.14 481.83 54.19 528.08 54.19"/><path d="M465.16,88.55V99.69q0,6.61-6.62,6.62H429q-6.62,0-6.62-6.62V60.81q0-6.62,6.62-6.62h29.5q6.61,0,6.62,6.62V72h-9.22V61.73a3.23,3.23,0,0,0-.46-2.13,3.27,3.27,0,0,0-2.14-.46h-19a3.25,3.25,0,0,0-2.09.46,3,3,0,0,0-.51,2.13v37a3,3,0,0,0,.51,2.13,3.23,3.23,0,0,0,2.09.47h19a3.25,3.25,0,0,0,2.14-.47,3.21,3.21,0,0,0,.46-2.13V88.55Z"/><path d="M381.45,54.19l20.2,52.12h-9.14L388.66,96H361.59l-3.85,10.31h-9.05L368.8,54.19Zm5.28,36.87L375.08,60.14,363.44,91.06Z"/><path d="M317.35,87.62l11.82,18.69h-9.55L308.14,87.62H294.06v18.69h-9.13V54.19h37.2q6.62,0,6.62,6.62V81q0,6.63-6.62,6.62Zm2.27-7.54V61.73a3.29,3.29,0,0,0-.46-2.13,3.27,3.27,0,0,0-2.14-.46h-23V82.68h23a3.1,3.1,0,0,0,2.14-.5A3.37,3.37,0,0,0,319.62,80.08Z"/><polygon points="263.48 54.19 263.48 59.14 236 59.14 236 79.16 260.21 79.16 260.21 84.1 236 84.1 236 106.31 226.61 106.31 226.61 54.19 263.48 54.19"/><path d="M167.57,5V157.75H9.14V5Zm-8.42,144.34V13.42H17.56V149.33Z"/><polygon points="113.34 79.1 134.08 115.03 125.37 115.03 113.34 94.19 101.3 115.03 92.59 115.03 113.34 79.1"/><polygon points="104.74 64.22 109.1 71.76 67.61 71.76 88.36 35.83 92.71 43.38 80.68 64.22 104.74 64.22"/><polygon points="63.37 79.1 84.12 115.03 42.63 115.03 46.99 107.49 71.05 107.49 59.02 86.65 63.37 79.1"/></svg>